<svg aria-hidden="true" style="position: absolute; width: 0; height: 0; overflow: hidden;" version="1.1" xmlns="http://www.w3.org/2000/svg" xmlns:xlink="http://www.w3.org/1999/xlink">
<defs>
<symbol id="icon-circle" viewBox="0 0 24 24">
<title>circle</title>
<path d="M23 12c0-1.488-0.296-2.91-0.833-4.207-0.558-1.347-1.375-2.558-2.388-3.571s-2.224-1.831-3.571-2.388c-1.298-0.538-2.72-0.834-4.208-0.834s-2.91 0.296-4.207 0.833c-1.347 0.558-2.558 1.375-3.571 2.389s-1.831 2.224-2.389 3.571c-0.537 1.297-0.833 2.719-0.833 4.207s0.296 2.91 0.833 4.207c0.558 1.347 1.375 2.558 2.388 3.571s2.224 1.831 3.571 2.388c1.298 0.538 2.72 0.834 4.208 0.834s2.91-0.296 4.207-0.833c1.347-0.558 2.558-1.375 3.571-2.388s1.831-2.224 2.388-3.571c0.538-1.298 0.834-2.72 0.834-4.208zM21 12c0 1.221-0.243 2.383-0.681 3.442-0.456 1.101-1.124 2.092-1.955 2.922s-1.822 1.499-2.922 1.955c-1.059 0.438-2.221 0.681-3.442 0.681s-2.383-0.243-3.442-0.681c-1.101-0.456-2.092-1.124-2.922-1.955-0.831-0.831-1.499-1.822-1.955-2.922-0.438-1.059-0.681-2.221-0.681-3.442s0.243-2.383 0.681-3.442c0.456-1.101 1.124-2.092 1.955-2.922s1.822-1.499 2.922-1.955c1.059-0.438 2.221-0.681 3.442-0.681s2.383 0.243 3.442 0.681c1.101 0.456 2.092 1.124 2.922 1.955 0.831 0.831 1.499 1.822 1.955 2.922 0.438 1.059 0.681 2.221 0.681 3.442z"></path>
</symbol>
<symbol id="icon-minus" viewBox="0 0 24 24">
<title>minus</title>
<path d="M5 13h14c0.552 0 1-0.448 1-1s-0.448-1-1-1h-14c-0.552 0-1 0.448-1 1s0.448 1 1 1z"></path>
</symbol>
<symbol id="icon-plus" viewBox="0 0 24 24">
<title>plus</title>
<path d="M5 13h6v6c0 0.552 0.448 1 1 1s1-0.448 1-1v-6h6c0.552 0 1-0.448 1-1s-0.448-1-1-1h-6v-6c0-0.552-0.448-1-1-1s-1 0.448-1 1v6h-6c-0.552 0-1 0.448-1 1s0.448 1 1 1z"></path>
</symbol>
<symbol id="icon-line-graph" viewBox="0 0 20 20">
<title>line-graph</title>
<path d="M0.69 11.331l1.363 0.338 1.026-1.611-1.95-0.482c-0.488-0.121-0.981 0.174-1.102 0.66-0.121 0.483 0.175 0.973 0.663 1.095zM18.481 11.592l-4.463 4.016-5.247-4.061c-0.1-0.076-0.215-0.133-0.338-0.162l-0.698-0.174-1.027 1.611 1.1 0.273 5.697 4.408c0.166 0.127 0.362 0.189 0.559 0.189 0.219 0 0.438-0.078 0.609-0.232l5.028-4.527c0.372-0.334 0.401-0.906 0.064-1.277s-0.911-0.4-1.284-0.064zM8.684 7.18l4.887 3.129c0.413 0.264 0.961 0.154 1.24-0.246l5.027-7.242c0.286-0.412 0.183-0.977-0.231-1.26-0.414-0.285-0.979-0.182-1.265 0.23l-4.528 6.521-4.916-3.147c-0.204-0.131-0.451-0.174-0.688-0.123-0.236 0.053-0.442 0.197-0.571 0.4l-7.497 11.767c-0.27 0.422-0.144 0.983 0.28 1.25 0.15 0.096 0.319 0.141 0.486 0.141 0.301 0 0.596-0.149 0.768-0.42l7.008-11z"></path>
</symbol>
<symbol id="icon-new-message" viewBox="0 0 20 20">
<title>new-message</title>
<path d="M18.174 1.826c-1.102-1.102-2.082-0.777-2.082-0.777l-8.639 8.632-1.453 4.319 4.317-1.454 8.634-8.638c0 0 0.324-0.98-0.777-2.082zM10.605 11.605l-0.471 0.47-1.473 0.5c-0.104-0.24-0.234-0.477-0.498-0.74s-0.5-0.394-0.74-0.498l0.5-1.473 0.471-0.47c0 0 0.776-0.089 1.537 0.673 0.762 0.761 0.674 1.538 0.674 1.538zM16 17h-13v-13h5l2-2h-7c-1.1 0-2 0.9-2 2v13c0 1.1 0.9 2 2 2h13c1.1 0 2-0.9 2-2v-7l-2 2v5z"></path>
</symbol>
<symbol id="icon-bin" viewBox="0 0 32 32">
<title>bin</title>
<path d="M4 10v20c0 1.1 0.9 2 2 2h18c1.1 0 2-0.9 2-2v-20h-22zM10 28h-2v-14h2v14zM14 28h-2v-14h2v14zM18 28h-2v-14h2v14zM22 28h-2v-14h2v14z"></path>
<path d="M26.5 4h-6.5v-2.5c0-0.825-0.675-1.5-1.5-1.5h-7c-0.825 0-1.5 0.675-1.5 1.5v2.5h-6.5c-0.825 0-1.5 0.675-1.5 1.5v2.5h26v-2.5c0-0.825-0.675-1.5-1.5-1.5zM18 4h-6v-1.975h6v1.975z"></path>
</symbol>
</defs>
</svg>
